<?xml version="1.0" encoding="UTF-8"?>
<!-- Ajanta Pharma Participant Resource Pack - original SVG icon sprite.
     Reference an icon with: <svg class="icon"><use href="../assets/icons.svg#target"/></svg>
     All icons drawn on a 24x24 grid, using currentColor / fill. -->
<svg xmlns="http://www.w3.org/2000/svg" style="display:none">

  <symbol id="target" viewBox="0 0 24 24">
    <path d="M12 2a10 10 0 1 0 10 10A10 10 0 0 0 12 2Zm0 18a8 8 0 1 1 8-8 8 8 0 0 1-8 8Zm0-13a5 5 0 1 0 5 5 5 5 0 0 0-5-5Zm0 8a3 3 0 1 1 3-3 3 3 0 0 1-3 3Zm0-4a1 1 0 1 0 1 1 1 1 0 0 0-1-1Z"/>
  </symbol>

  <symbol id="layers" viewBox="0 0 24 24">
    <path d="M12 3 2 8l10 5 10-5Zm0 2.24L17.5 8 12 10.76 6.5 8ZM2 12l10 5 10-5-2.2-1.1L12 14.76 4.2 10.9Zm0 4 10 5 10-5-2.2-1.1L12 18.76 4.2 14.9Z"/>
  </symbol>

  <symbol id="checklist" viewBox="0 0 24 24">
    <path d="M3 4h2v2H3Zm4 .5h14v1.5H7Zm-4 5h2v2H3Zm4 .5h14v1.5H7Zm-4 5h2v2H3Zm4 .5h14V17H7ZM3.2 3.3l1.4 1.4-.7.7L2.5 4Z"/>
    <path d="M4.6 8.9 3.2 7.5l-.7.7 2.1 2.1 1.8-3.1-.9-.5Z"/>
  </symbol>

  <symbol id="shield" viewBox="0 0 24 24">
    <path d="M12 2 4 5v6c0 4.4 3.4 8.5 8 11 4.6-2.5 8-6.6 8-11V5Zm0 2.2 6 2.25V11c0 3.4-2.5 6.7-6 8.8-3.5-2.1-6-5.4-6-8.8V6.45Zm-1 4.3-2 2 3 3 5-5-1.4-1.4L12 10.7Z"/>
  </symbol>

  <symbol id="library" viewBox="0 0 24 24">
    <path d="M4 3h3v18H4Zm4 0h3v18H8Zm5 0h2.5l3.5 17.6-2.45.5ZM3 20h9v1.5H3Z"/>
  </symbol>

  <symbol id="book" viewBox="0 0 24 24">
    <path d="M4 3.5A1.5 1.5 0 0 1 5.5 2H12v17H5.5A1.5 1.5 0 0 0 4 20.5Zm10-1.5h4.5A1.5 1.5 0 0 1 20 3.5v17a1.5 1.5 0 0 0-1.5-1.5H14Z"/>
  </symbol>

  <symbol id="presentation" viewBox="0 0 24 24">
    <path d="M3 3h18v2H3Zm1 3h16v9H4Zm7 9h2v3l3 3-1.4 1.4L12 20.4 9.4 23 8 21.6l3-3Z"/>
  </symbol>

  <symbol id="clipboard" viewBox="0 0 24 24">
    <path d="M9 2h6a1 1 0 0 1 1 1v1h2a1 1 0 0 1 1 1v16a1 1 0 0 1-1 1H6a1 1 0 0 1-1-1V5a1 1 0 0 1 1-1h2V3a1 1 0 0 1 1-1Zm1 2v1h4V4Zm-3 4v12h10V6h-1v1a1 1 0 0 1-1 1H9a1 1 0 0 1-1-1V6H7Zm1.6 4.5 1.4 1.4 3-3 1 1-4 4-2.4-2.4Z"/>
  </symbol>

  <symbol id="trophy" viewBox="0 0 24 24">
    <path d="M6 3h12v2h3v3a4 4 0 0 1-4 4h-.6A5 5 0 0 1 13 14.9V17h3v2H8v-2h3v-2.1A5 5 0 0 1 7.6 12H7a4 4 0 0 1-4-4V5h3Zm0 4v1a2 2 0 0 0 2 2V7Zm12 0v3a2 2 0 0 0 2-2V7ZM7 19h10v2H7Z"/>
  </symbol>

  <symbol id="warning" viewBox="0 0 24 24">
    <path d="M12 2 1 21h22Zm0 4.5 7.5 13H4.5ZM11 10h2v5h-2Zm0 6h2v2h-2Z"/>
  </symbol>

  <symbol id="copy" viewBox="0 0 24 24">
    <path d="M8 2h9a1 1 0 0 1 1 1v12a1 1 0 0 1-1 1H8a1 1 0 0 1-1-1V3a1 1 0 0 1 1-1Zm1 2v10h7V4ZM4 6h1.5v13H15v1.5a1 1 0 0 1-1 1H4a1 1 0 0 1-1-1V7a1 1 0 0 1 1-1Z"/>
  </symbol>

  <symbol id="print" viewBox="0 0 24 24">
    <path d="M7 2h10v4H7Zm-3 5h16a1 1 0 0 1 1 1v8a1 1 0 0 1-1 1h-2v4H7v-4H5a1 1 0 0 1-1-1V8a1 1 0 0 1 1-1Zm5 8v5h6v-5Zm8-4a1 1 0 1 0 1 1 1 1 0 0 0-1-1Z"/>
  </symbol>

  <symbol id="chat" viewBox="0 0 24 24">
    <path d="M4 3h16a1 1 0 0 1 1 1v12a1 1 0 0 1-1 1H9l-5 4v-4H4a1 1 0 0 1-1-1V4a1 1 0 0 1 1-1Zm3 5v2h10V8Zm0 4v2h7v-2Z"/>
  </symbol>

  <symbol id="bulb" viewBox="0 0 24 24">
    <path d="M12 2a7 7 0 0 0-4 12.7V17h8v-2.3A7 7 0 0 0 12 2Zm-3 17h6v1.5a1.5 1.5 0 0 1-1.5 1.5h-3A1.5 1.5 0 0 1 9 20.5Z"/>
  </symbol>

  <symbol id="home" viewBox="0 0 24 24">
    <path d="M12 3 2 12h3v8h5v-5h4v5h5v-8h3Z"/>
  </symbol>

  <symbol id="flow" viewBox="0 0 24 24">
    <path d="M3 4h6v4H3Zm12 0h6v4h-6ZM6 8v4h6v3H9v4h6v-4h-3v-3h6V8h-2v2H8V8Z"/>
  </symbol>

  <symbol id="doc" viewBox="0 0 24 24">
    <path d="M6 2h8l4 4v16H6Zm7 1.5V7h3.5ZM8 11h8v1.6H8Zm0 3h8v1.6H8Zm0 3h5v1.6H8Z"/>
  </symbol>

  <symbol id="arrow-right" viewBox="0 0 24 24">
    <path d="M4 11h13.2l-4.6-4.6L14 5l7 7-7 7-1.4-1.4 4.6-4.6H4Z"/>
  </symbol>

  <symbol id="check" viewBox="0 0 24 24">
    <path d="M9.5 16.2 4.8 11.5l-1.4 1.4 6.1 6.1L20.6 8 19.2 6.6Z"/>
  </symbol>

  <symbol id="scale" viewBox="0 0 24 24">
    <path d="M11 2h2v2.2l5.3 1.4-.5 1.9L13 6.3V19h4v2H7v-2h4V6.3L6.2 7.5l-.5-1.9L11 4.2ZM5 9l-3 6h6Zm14 0-3 6h6Z"/>
  </symbol>

</svg>
